Coordinates
version=1
nRows=117
nColumns=6
inDegrees=yes

Units are S.I. units (second, meters, Newtons, ...)
If the header above contains a line with 'inDegrees', this indicates whether rotational values are in degrees (yes) or radians (no).

endheader
time	foot_tx	hip_flexion_r	knee_angle_r	ankle_angle_r	lumbar
     21.15000000	      0.25480119	     36.53731852	    -33.11702681	      8.68717804	    -25.45817773
     21.16000000	      0.25492785	     35.43635667	    -32.00563305	      8.44366784	    -24.96641415
     21.17000000	      0.25503724	     34.35543083	    -30.91123369	      8.20559860	    -24.46161145
     21.18000000	      0.25513011	     33.29403807	    -29.83629261	      7.97392553	    -23.94798546
     21.19000000	      0.25521035	     32.26045920	    -28.78273674	      7.74826504	    -23.42040153
     21.20000000	      0.25528039	     31.25588845	    -27.75230837	      7.52888875	    -22.88104327
     21.21000000	      0.25534188	     30.28261849	    -26.74797223	      7.31684545	    -22.33074010
     21.22000000	      0.25539793	     29.34250837	    -25.77206867	      7.11286657	    -21.77014483
     21.23000000	      0.25545353	     28.43799576	    -24.82645379	      6.91725117	    -21.19931125
     21.24000000	      0.25550890	     27.56766278	    -23.91326974	      6.73123302	    -20.62135424
     21.25000000	      0.25556818	     26.73309223	    -23.03392896	      6.55507746	    -20.03681538
     21.26000000	      0.25562411	     25.93527019	    -22.18965237	      6.39006225	    -19.44278770
     21.27000000	      0.25568591	     25.17783394	    -21.38434671	      6.23712702	    -18.84008363
     21.28000000	      0.25574985	     24.44930414	    -20.60920664	      6.09299114	    -18.23693372
     21.29000000	      0.25581641	     23.76034054	    -19.87324544	      5.96161228	    -17.62524213
     21.30000000	      0.25588420	     23.10218623	    -19.17354626	      5.84238486	    -17.01366853
     21.31000000	      0.25594975	     22.50709255	    -18.51584680	      5.73617368	    -16.36851499
     21.32000000	      0.25602220	     21.87251258	    -17.87435288	      5.63658470	    -15.79357848
     21.33000000	      0.25609445	     21.31814288	    -17.27174203	      5.54689131	    -15.16570935
     21.34000000	      0.25615930	     20.72950129	    -16.68756754	      5.46527480	    -14.60373249
     21.35000000	      0.25621883	     20.20326239	    -16.13299194	      5.39009890	    -14.00619339
     21.36000000	      0.25627113	     19.68698195	    -15.59706635	      5.31961870	    -13.42625457
     21.37000000	      0.25631344	     19.18268880	    -15.07770603	      5.25271947	    -12.86092338
     21.38000000	      0.25634526	     18.69084958	    -14.57282027	      5.18838207	    -12.30816577
     21.39000000	      0.25636697	     18.21157738	    -14.07979054	      5.12531480	    -11.76599607
     21.40000000	      0.25637914	     17.74455182	    -13.59631728	      5.06254132	    -11.23248375
     21.41000000	      0.25638127	     17.28903634	    -13.12076440	      4.99965312	    -10.70589777
     21.42000000	      0.25637128	     16.84398279	    -12.65221993	      4.93682883	    -10.18480239
     21.43000000	      0.25634733	     16.40818787	    -12.19026168	      4.87450453	     -9.66811712
     21.44000000	      0.25631103	     15.98076859	    -11.73464467	      4.81291024	     -9.15506478
     21.45000000	      0.25626322	     15.60281557	    -11.29413581	      4.75390089	     -8.60299162
     21.46000000	      0.25621310	     15.18091258	    -10.84875513	      4.69330160	     -8.10766295
     21.47000000	      0.25614863	     14.80625783	    -10.41966668	      4.63646695	     -7.57713004
     21.48000000	      0.25607299	     14.39914814	     -9.99052732	      4.58003588	     -7.09546906
     21.49000000	      0.25597558	     14.05823344	     -9.58324517	      4.52853994	     -6.56510647
     21.50000000	      0.25586198	     13.70637933	     -9.18328358	      4.47901163	     -6.06891724
     21.51000000	      0.25574088	     13.37639263	     -8.79402771	      4.43017735	     -5.57332325
     21.52000000	      0.25560487	     13.06155222	     -8.42068594	      4.38565923	     -5.08888970
     21.53000000	      0.25546205	     12.76005504	     -8.06166943	      4.34433532	     -4.61742221
     21.54000000	      0.25531482	     12.47137084	     -7.71914778	      4.30738101	     -4.16056557
     21.55000000	      0.25517058	     12.19295899	     -7.39380875	      4.27499202	     -3.72173601
     21.56000000	      0.25503227	     11.92429059	     -7.08753909	      4.24813700	     -3.30282037
     21.57000000	      0.25490430	     11.66426111	     -6.80174053	      4.22747367	     -2.90578287
     21.58000000	      0.25478936	     11.41245363	     -6.53675328	      4.21299901	     -2.53175337
     21.59000000	      0.25469217	     11.14157619	     -6.28768741	      4.20380786	     -2.20855964
     21.60000000	      0.25460323	     10.93570980	     -6.06958334	      4.20228098	     -1.84852109
     21.61000000	      0.25453016	     10.68664792	     -5.85994384	      4.20390935	     -1.56209653
     21.62000000	      0.25446721	     10.48863238	     -5.67627766	      4.21181816	     -1.24885962
     21.63000000	      0.25441365	     10.25923014	     -5.49807355	      4.22134706	     -0.99121525
     21.64000000	      0.25437258	     10.04270795	     -5.33590546	      4.23514157	     -0.74112792
     21.65000000	      0.25434145	      9.83447346	     -5.18529095	      4.25165807	     -0.49944537
     21.66000000	      0.25432042	      9.63129496	     -5.04454771	      4.27052479	     -0.26712078
     21.67000000	      0.25430937	      9.43114669	     -4.91224227	      4.29139122	     -0.04383671
     21.68000000	      0.25430786	      9.23279208	     -4.78705176	      4.31383252	      0.17079145
     21.69000000	      0.25431479	      9.03518397	     -4.66751414	      4.33731744	      0.37723072
     21.70000000	      0.25432713	      8.83724820	     -4.55175110	      4.36119799	      0.57611126
     21.71000000	      0.25434084	      8.63890968	     -4.43795337	      4.38483515	      0.76890585
     21.72000000	      0.25434803	      8.43813638	     -4.32341790	      4.40765095	      0.95660605
     21.73000000	      0.25434275	      8.20556948	     -4.20234332	      4.42901427	      1.10902200
     21.74000000	      0.25431909	      8.00546468	     -4.08050576	      4.44833408	      1.29912300
     21.75000000	      0.25427423	      7.79653647	     -3.95185245	      4.46538000	      1.48193676
     21.76000000	      0.25419953	      7.54133534	     -3.81065442	      4.48003663	      1.61691597
     21.77000000	      0.25409883	      7.33687257	     -3.66857946	      4.49169750	      1.80981856
     21.78000000	      0.25396915	      7.07971452	     -3.51284387	      4.50034758	      1.94501817
     21.79000000	      0.25381590	      6.87368922	     -3.35686993	      4.50583571	      2.13552167
     21.80000000	      0.25363466	      6.60903556	     -3.18745221	      4.50850036	      2.25945577
     21.81000000	      0.25343178	      6.37123241	     -3.01587684	      4.50822577	      2.40915242
     21.82000000	      0.25320724	      6.13372949	     -2.84072559	      4.50591326	      2.55364176
     21.83000000	      0.25296971	      5.89560235	     -2.65866562	      4.49927084	      2.69312231
     21.84000000	      0.25271896	      5.65944308	     -2.47513218	      4.49079145	      2.82620269
     21.85000000	      0.25245859	      5.42560943	     -2.29014722	      4.48015690	      2.95244664
     21.86000000	      0.25219622	      5.19572981	     -2.10625806	      4.46798616	      3.07110436
     21.87000000	      0.25193732	      4.97247792	     -1.92783599	      4.45579930	      3.18172091
     21.88000000	      0.25169298	      4.75797203	     -1.75783485	      4.44418051	      3.28389537
     21.89000000	      0.25147293	      4.55787191	     -1.60212914	      4.43523337	      3.37958484
     21.90000000	      0.25128473	      4.37414192	     -1.46513062	      4.43068944	      3.46806805
     21.91000000	      0.25113449	      4.20860027	     -1.34944397	      4.43146811	      3.54933288
     21.92000000	      0.25103063	      4.08910050	     -1.25808338	      4.43689116	      3.65407657
     21.93000000	      0.25097104	      3.94736903	     -1.18585551	      4.44912540	      3.70647933
     21.94000000	      0.25095038	      3.85589719	     -1.13555839	      4.46548573	      3.79089171
     21.95000000	      0.25097982	      3.77662816	     -1.10240946	      4.48506591	      3.86326429
     21.96000000	      0.25104097	      3.70834944	     -1.08255974	      4.50798104	      3.93030795
     21.97000000	      0.25113236	      3.65117326	     -1.07243264	      4.53240242	      3.99413648
     21.98000000	      0.25124613	      3.60553249	     -1.06855277	      4.55679156	      4.05745246
     21.99000000	      0.25136662	      3.59617319	     -1.07906633	      4.58382307	      4.14200824
     22.00000000	      0.25149326	      3.57400870	     -1.08700546	      4.60807544	      4.20168771
     22.01000000	      0.25161084	      3.54129130	     -1.09647285	      4.63195895	      4.23531508
     22.02000000	      0.25173269	      3.53991291	     -1.10535090	      4.65131482	      4.29611847
     22.03000000	      0.25183201	      3.51528489	     -1.11331691	      4.67091074	      4.31921374
     22.04000000	      0.25191803	      3.49506476	     -1.11895295	      4.68798824	      4.33954509
     22.05000000	      0.25199034	      3.47767354	     -1.12298917	      4.70344992	      4.35729631
     22.06000000	      0.25204677	      3.46295775	     -1.12469502	      4.71718834	      4.37236859
     22.07000000	      0.25209135	      3.44909151	     -1.12496249	      4.72994221	      4.38517879
     22.08000000	      0.25212339	      3.43585046	     -1.12346073	      4.74173835	      4.39606090
     22.09000000	      0.25215549	      3.41565477	     -1.10989245	      4.74758559	      4.40506945
     22.10000000	      0.25216862	      3.38381373	     -1.10062764	      4.75671686	      4.39497551
     22.11000000	      0.25218179	      3.36948396	     -1.08988394	      4.76355592	      4.40546960
     22.12000000	      0.25218969	      3.35519304	     -1.07816769	      4.76969858	      4.41506133
     22.13000000	      0.25219427	      3.34212900	     -1.06644613	      4.77533646	      4.42476629
     22.14000000	      0.25220010	      3.33181633	     -1.05514235	      4.78019679	      4.43503944
     22.15000000	      0.25220991	      3.32502502	     -1.04476204	      4.78423402	      4.44596976
     22.16000000	      0.25222610	      3.32270646	     -1.03598888	      4.78759254	      4.45802055
     22.17000000	      0.25223583	      3.32124238	     -1.03305870	      4.79324163	      4.46351222
     22.18000000	      0.25226693	      3.34888713	     -1.03041246	      4.79470904	      4.49646432
     22.19000000	      0.25229379	      3.35022953	     -1.02823071	      4.79766618	      4.49582050
     22.20000000	      0.25233209	      3.35741864	     -1.02568298	      4.79774479	      4.49334435
     22.21000000	      0.25236149	      3.38849639	     -1.03510185	      4.80210149	      4.50890193
     22.22000000	      0.25240497	      3.39757010	     -1.03135208	      4.79967128	      4.50292560
     22.23000000	      0.25244308	      3.41343099	     -1.03566225	      4.80011645	      4.49555292
     22.24000000	      0.25247958	      3.42606653	     -1.03316200	      4.79669777	      4.48560886
     22.25000000	      0.25250452	      3.44303163	     -1.04091837	      4.79794603	      4.47135034
     22.26000000	      0.25253720	      3.45664873	     -1.03855816	      4.79328379	      4.45855238
     22.27000000	      0.25255307	      3.47064782	     -1.04739347	      4.79434321	      4.43736909
     22.28000000	      0.25257390	      3.48351476	     -1.04487888	      4.78925367	      4.42286921
     22.29000000	      0.25257651	      3.49235276	     -1.05243572	      4.78960364	      4.39603268
     22.30000000	      0.25257873	      3.50335972	     -1.04849180	      4.78417050	      4.38225688
     22.31000000	      0.25256862	      3.50724776	     -1.05259901	      4.78339263	      4.35515947
